<svg baseProfile="full" height="200" version="1.1" width="200" xmlns="http://www.w3.org/2000/svg" xmlns:ev="http://www.w3.org/2001/xml-events" xmlns:xlink="http://www.w3.org/1999/xlink"><defs /><g id="tree_0"><g fill="none" id="edges" stroke="black"><path d="M 48.57142857142857 169.57316555582244 V 30.0 H 79.10714285714286" id="edge_0_6" /><path d="M 35.714285714285715 170.0 V 169.57316555582244 H 48.57142857142857" id="edge_0_0" /><path d="M 61.42857142857143 170.0 V 169.57316555582244 H 48.57142857142857" id="edge_0_1" /><path d="M 109.64285714285715 85.12837810896303 V 30.0 H 79.10714285714286" id="edge_0_9" /><path d="M 87.14285714285714 170.0 V 85.12837810896303 H 109.64285714285715" id="edge_0_4" /><path d="M 132.14285714285717 152.9582862910623 V 85.12837810896303 H 109.64285714285715" id="edge_0_8" /><path d="M 112.85714285714286 170.0 V 152.9582862910623 H 132.14285714285717" id="edge_0_5" /><path d="M 151.42857142857144 156.79433525299126 V 152.9582862910623 H 132.14285714285717" id="edge_0_7" /><path d="M 138.57142857142858 170.0 V 156.79433525299126 H 151.42857142857144" id="edge_0_2" /><path d="M 164.2857142857143 170.0 V 156.79433525299126 H 151.42857142857144" id="edge_0_3" /></g><g id="symbols"><g class="nodes"><circle cx="79.10714285714286" cy="30.0" id="node_0_10" r="3" /><circle cx="48.57142857142857" cy="169.57316555582244" id="node_0_6" r="3" /><circle cx="35.714285714285715" cy="170.0" fill="blue" id="node_0_0" r="3" /><circle cx="61.42857142857143" cy="170.0" fill="green" id="node_0_1" r="3" /><circle cx="109.64285714285715" cy="85.12837810896303" id="node_0_9" r="3" /><circle cx="87.14285714285714" cy="170.0" fill="green" id="node_0_4" r="3" /><circle cx="132.14285714285717" cy="152.9582862910623" id="node_0_8" r="3" /><circle cx="112.85714285714286" cy="170.0" fill="green" id="node_0_5" r="3" /><circle cx="151.42857142857144" cy="156.79433525299126" id="node_0_7" r="3" /><circle cx="138.57142857142858" cy="170.0" fill="blue" id="node_0_2" r="3" /><circle cx="164.2857142857143" cy="170.0" fill="blue" id="node_0_3" r="3" /></g><g class="mutations" fill="red"><rect height="6" transform="translate(-3, -3)" width="6" x="48.57142857142857" y="49.93902365083178" /><rect height="6" transform="translate(-3, -3)" width="6" x="48.57142857142857" y="69.87804730166356" /><rect height="6" transform="translate(-3, -3)" width="6" x="48.57142857142857" y="89.81707095249533" /><rect height="6" transform="translate(-3, -3)" width="6" x="48.57142857142857" y="109.75609460332711" /><rect height="6" transform="translate(-3, -3)" width="6" x="48.57142857142857" y="129.6951182541589" /><rect height="6" transform="translate(-3, -3)" width="6" x="48.57142857142857" y="149.63414190499068" /><rect height="6" transform="translate(-3, -3)" width="6" x="109.64285714285715" y="57.56418905448152" /><rect height="6" transform="translate(-3, -3)" width="6" x="87.14285714285714" y="127.56418905448152" /><rect height="6" transform="translate(-3, -3)" width="6" x="132.14285714285717" y="119.04333220001267" /><rect height="6" transform="translate(-3, -3)" width="6" x="112.85714285714286" y="161.47914314553117" /></g></g><g font-size="14" id="labels"><g class="nodes"><g text-anchor="start"><text x="114.64285714285715" y="80.12837810896303">9</text><text x="137.14285714285717" y="147.9582862910623">8</text><text x="156.42857142857144" y="151.79433525299126">7</text></g><g text-anchor="middle"><text x="79.10714285714286" y="25.0">10</text><text x="35.714285714285715" y="190.0">0</text><text x="61.42857142857143" y="190.0">1</text><text x="87.14285714285714" y="190.0">4</text><text x="112.85714285714286" y="190.0">5</text><text x="138.57142857142858" y="190.0">2</text><text x="164.2857142857143" y="190.0">3</text></g><g text-anchor="end"><text x="43.57142857142857" y="164.57316555582244">6</text></g></g><g class="mutations" font-style="italic"><g text-anchor="start"><text x="114.64285714285715" y="61.56418905448152">6</text><text x="137.14285714285717" y="123.04333220001267">1</text></g><g text-anchor="end"><text x="43.57142857142857" y="53.93902365083178">9</text><text x="43.57142857142857" y="73.87804730166356">8</text><text x="43.57142857142857" y="93.81707095249533">7</text><text x="43.57142857142857" y="113.75609460332711">4</text><text x="43.57142857142857" y="133.6951182541589">3</text><text x="43.57142857142857" y="153.63414190499068">2</text><text x="82.14285714285714" y="131.56418905448152">0</text><text x="107.85714285714286" y="165.47914314553117">5</text></g></g></g></g></svg>