<svg baseProfile="full" height="200" version="1.1" width="200" xmlns="http://www.w3.org/2000/svg" xmlns:ev="http://www.w3.org/2001/xml-events" xmlns:xlink="http://www.w3.org/1999/xlink"><defs /><g id="tree_0"><g fill="none" id="edges" stroke="black"><path d="M 48.57142857142857 154.32155899325562 V 30.0 H 79.10714285714286" id="edge_0_7" /><path d="M 35.714285714285715 170.0 V 154.32155899325562 H 48.57142857142857" id="edge_0_2" /><path d="M 61.42857142857143 170.0 V 154.32155899325562 H 48.57142857142857" id="edge_0_3" /><path d="M 109.64285714285715 48.19960630655906 V 30.0 H 79.10714285714286" id="edge_0_9" /><path d="M 87.14285714285714 170.0 V 48.19960630655906 H 109.64285714285715" id="edge_0_5" /><path d="M 132.14285714285717 108.0438813219724 V 48.19960630655906 H 109.64285714285715" id="edge_0_8" /><path d="M 112.85714285714286 170.0 V 108.0438813219724 H 132.14285714285717" id="edge_0_4" /><path d="M 151.42857142857144 160.48499301036108 V 108.0438813219724 H 132.14285714285717" id="edge_0_6" /><path d="M 138.57142857142858 170.0 V 160.48499301036108 H 151.42857142857144" id="edge_0_0" /><path d="M 164.2857142857143 170.0 V 160.48499301036108 H 151.42857142857144" id="edge_0_1" /></g><g id="symbols"><g class="nodes"><circle cx="79.10714285714286" cy="30.0" id="node_0_10" r="3" /><circle cx="48.57142857142857" cy="154.32155899325562" id="node_0_7" r="3" /><circle cx="35.714285714285715" cy="170.0" fill="red" id="node_0_2" r="3" /><circle cx="61.42857142857143" cy="170.0" fill="red" id="node_0_3" r="3" /><circle cx="109.64285714285715" cy="48.19960630655906" id="node_0_9" r="3" /><circle cx="87.14285714285714" cy="170.0" fill="red" id="node_0_5" r="3" /><circle cx="132.14285714285717" cy="108.0438813219724" id="node_0_8" r="3" /><circle cx="112.85714285714286" cy="170.0" fill="red" id="node_0_4" r="3" /><circle cx="151.42857142857144" cy="160.48499301036108" id="node_0_6" r="3" /><circle cx="138.57142857142858" cy="170.0" fill="blue" id="node_0_0" r="3" /><circle cx="164.2857142857143" cy="170.0" fill="white" id="node_0_1" r="3" /></g><g class="mutations" fill="red" /></g><g font-size="14" id="labels"><g class="nodes"><g text-anchor="start"><text x="114.64285714285715" y="43.19960630655906">9</text><text x="137.14285714285717" y="103.0438813219724">8</text><text x="156.42857142857144" y="155.48499301036108">6</text></g><g text-anchor="middle"><text x="79.10714285714286" y="25.0">10</text><text x="35.714285714285715" y="190.0">2</text><text x="61.42857142857143" y="190.0">3</text><text x="87.14285714285714" y="190.0">5</text><text x="112.85714285714286" y="190.0">4</text><text x="138.57142857142858" y="190.0">0</text><text x="164.2857142857143" y="190.0">1</text></g><g text-anchor="end"><text x="43.57142857142857" y="149.32155899325562">7</text></g></g><g class="mutations" font-style="italic"><g text-anchor="start" /><g text-anchor="end" /></g></g></g></svg>