<?xml version="1.0" encoding="utf-8" ?>
<svg baseProfile="full" height="200" version="1.1" width="200" xmlns="http://www.w3.org/2000/svg" xmlns:ev="http://www.w3.org/2001/xml-events" xmlns:xlink="http://www.w3.org/1999/xlink">
  <defs/>
  <g id="tree_0">
    <g fill="none" id="edges" stroke="black">
      <path d="M 70.0 123.33333333333334 V 30.0 H 70.0" id="edge_0_5"/>
      <path d="M 40.0 170.0 V 123.33333333333334 H 70.0" id="edge_0_0"/>
      <path d="M 70.0 170.0 V 123.33333333333334 H 70.0" id="edge_0_1"/>
      <path d="M 100.0 170.0 V 123.33333333333334 H 70.0" id="edge_0_2"/>
      <path d="M 130.0 170.0 V 76.66666666666667 H 145.0" id="edge_0_3"/>
      <path d="M 160.0 170.0 V 76.66666666666667 H 145.0" id="edge_0_4"/>
    </g>
    <g id="symbols">
      <g class="nodes">
        <circle cx="70.0" cy="30.0" id="node_0_7" r="3"/>
        <circle cx="70.0" cy="123.33333333333334" id="node_0_5" r="3"/>
        <circle cx="40.0" cy="170.0" id="node_0_0" r="3"/>
        <circle cx="70.0" cy="170.0" id="node_0_1" r="3"/>
        <circle cx="100.0" cy="170.0" id="node_0_2" r="3"/>
        <circle cx="145.0" cy="76.66666666666667" id="node_0_6" r="3"/>
        <circle cx="130.0" cy="170.0" id="node_0_3" r="3"/>
        <circle cx="160.0" cy="170.0" id="node_0_4" r="3"/>
      </g>
      <g class="mutations" fill="red"/>
    </g>
    <g font-size="14" id="labels">
      <g class="nodes">
        <g text-anchor="start"/>
        <g text-anchor="middle">
          <text x="70.0" y="25.0">7</text>
          <text x="40.0" y="190.0">0</text>
          <text x="70.0" y="190.0">1</text>
          <text x="100.0" y="190.0">2</text>
          <text x="145.0" y="71.66666666666667">6</text>
          <text x="130.0" y="190.0">3</text>
          <text x="160.0" y="190.0">4</text>
        </g>
        <g text-anchor="end">
          <text x="65.0" y="118.33333333333334">5</text>
        </g>
      </g>
      <g class="mutations" font-style="italic">
        <g text-anchor="start"/>
        <g text-anchor="end"/>
      </g>
    </g>
  </g>
</svg>
