<?xml version="1.0" encoding="utf-8" ?>
<svg xmlns="http://www.w3.org/2000/svg" xmlns:ev="http://www.w3.org/2001/xml-events" xmlns:xlink="http://www.w3.org/1999/xlink" baseProfile="full" height="200" version="1.1" width="200">
  <defs>
    <style type="text/css"><![CDATA[.background path {fill: #808080; fill-opacity: 0}.background path:nth-child(odd) {fill-opacity: .1}.axes {font-size: 14px}.x-axis .tick .lab {font-weight: bold; dominant-baseline: hanging}.axes, .tree {font-size: 14px; text-anchor: middle}.axes line, .edge {stroke: black; fill: none}.y-axis .grid {stroke: #FAFAFA}.node > .sym {fill: black; stroke: none}.site > .sym {stroke: black}.mut text {fill: red; font-style: italic}.mut.extra text {fill: hotpink}.mut line {fill: none; stroke: none}.mut .sym {fill: none; stroke: red}.mut.extra .sym {stroke: hotpink}.node .mut .sym {stroke-width: 1.5px}.tree text, .tree-sequence text {dominant-baseline: central}.plotbox .lab.lft {text-anchor: end}.plotbox .lab.rgt {text-anchor: start}]]></style>
  </defs>
  <g class="tree t0">
    <g class="plotbox">
      <g class="c2 node n7 root" transform="translate(108 26.8)">
        <g class="a7 c3 node n5" transform="translate(-40 94.2667)">
          <g class="a5 leaf node n0 sample" transform="translate(-32 47.1333)">
            <path class="edge" d="M 0 0 V -47.1333 H 32"/>
            <rect class="sym" height="6" width="6" x="-3" y="-3"/>
            <text class="lab" transform="translate(0 11)">0</text>
          </g>
          <g class="a5 leaf node n1 sample" transform="translate(0.0 47.1333)">
            <path class="edge" d="M 0 0 V -47.1333 H 0.0"/>
            <rect class="sym" height="6" width="6" x="-3" y="-3"/>
            <text class="lab" transform="translate(0 11)">1</text>
          </g>
          <g class="a5 leaf node n2 sample" transform="translate(32 47.1333)">
            <path class="edge" d="M 0 0 V -47.1333 H -32"/>
            <rect class="sym" height="6" width="6" x="-3" y="-3"/>
            <text class="lab" transform="translate(0 11)">2</text>
          </g>
          <path class="edge" d="M 0 0 V -94.2667 H 40"/>
          <circle class="sym" cx="0" cy="0" r="3"/>
          <text class="lab lft" transform="translate(-3 -7.0)">5</text>
        </g>
        <g class="a7 c2 node n6" transform="translate(40 47.1333)">
          <g class="a6 leaf node n3 sample" transform="translate(-16 94.2667)">
            <path class="edge" d="M 0 0 V -94.2667 H 16"/>
            <rect class="sym" height="6" width="6" x="-3" y="-3"/>
            <text class="lab" transform="translate(0 11)">3</text>
          </g>
          <g class="a6 leaf node n4 sample" transform="translate(16 94.2667)">
            <path class="edge" d="M 0 0 V -94.2667 H -16"/>
            <rect class="sym" height="6" width="6" x="-3" y="-3"/>
            <text class="lab" transform="translate(0 11)">4</text>
          </g>
          <path class="edge" d="M 0 0 V -47.1333 H -40"/>
          <circle class="sym" cx="0" cy="0" r="3"/>
          <text class="lab rgt" transform="translate(3 -7.0)">6</text>
        </g>
        <circle class="sym" cx="0" cy="0" r="3"/>
        <text class="lab" transform="translate(0 -11)">7</text>
      </g>
    </g>
  </g>
</svg>
