<svg xmlns="http://www.w3.org/2000/svg" width="191.1596" height="117.3815" viewBox="0 0 191.1596 117.3815">
  <defs>
    <style>
      .cls-1 {
        fill: #12e3a8;
      }

      .cls-2 {
        fill: #E9E9E9;
      }
    </style>
  </defs>
  <title>influencersAsset 2</title>
  <g id="Layer_2" data-name="Layer 2">
    <g id="Layer_1-2" data-name="Layer 1">
      <g>
        <g>
          <path class="cls-1" d="M73.625,38.3661H57.3906V19.86a2.9343,2.9343,0,0,0-2.9343-2.9343H32.3485V2.9343a2.9344,2.9344,0,0,0-5.8687,0V16.9256H5.3162A2.9343,2.9343,0,0,0,2.3819,19.86V53.7087a2.9344,2.9344,0,0,0,5.8687,0V22.7942H29.4141l.0012,0,.0012,0H51.5219V38.3661H35.2864A2.9343,2.9343,0,0,0,32.352,41.3V61.294a6.1089,6.1089,0,1,0,5.8687.3347V44.2347h32.47V98.8769a2.9344,2.9344,0,1,0,5.8687,0V41.3A2.9343,2.9343,0,0,0,73.625,38.3661Z"/>
          <path class="cls-1" d="M188.2253,16.9256H156.5922V2.9343a2.9343,2.9343,0,1,0-5.8686,0V16.9256H118.0793A2.9343,2.9343,0,0,0,115.145,19.86V38.3661H95.2159A2.9343,2.9343,0,0,0,92.2815,41.3V53.7087a2.9344,2.9344,0,0,0,5.8687,0v-9.474h39.265V61.5578a6.1138,6.1138,0,1,0,5.8687-.1931V41.3a2.9343,2.9343,0,0,0-2.9344-2.9343H121.0137V22.7942H185.291V98.8769a2.9343,2.9343,0,1,0,5.8686,0V19.86A2.9343,2.9343,0,0,0,188.2253,16.9256Z"/>
        </g>
        <path class="cls-2" d="M17.6849,116.5672c-7.6954,0-10.5823-2.812-10.5823-10.2121V84.3784H1.5536A1.4036,1.4036,0,0,1,0,82.9724V81.27a1.42,1.42,0,0,1,1.5536-1.48h5.549V71.2067a2.2146,2.2146,0,0,1,2.369-2.3679h1.4809a2.1935,2.1935,0,0,1,2.2919,2.3679V79.79h8.9538a1.3993,1.3993,0,0,1,1.4809,1.48v1.7024a1.381,1.381,0,0,1-1.4809,1.406H13.2444v21.9029c0,3.9226,1.2583,5.55,4.8108,5.55h4.143a1.3618,1.3618,0,0,1,1.4809,1.48V114.94a1.46,1.46,0,0,1-1.5537,1.6275Z"/>
        <path class="cls-2" d="M59.9719,106.2074c0,6.7335-4.5132,11.1741-14.505,11.1741-9.84,0-14.355-3.8478-14.355-9.99v-1.1107a1.0712,1.0712,0,0,1,1.1856-1.11h3.4774a.9363.9363,0,0,1,1.0358,1.0357v1.11c0,3.6263,2.6643,5.4025,8.6562,5.4025,5.9942,0,8.7334-2.22,8.7334-5.8454v-.8881c0-3.33-1.9988-4.218-5.106-4.662l-8.1406-1.0358c-6.8073-.9619-9.7669-3.7-9.7669-9.5465v-.6656c0-6.66,4.3656-11.099,14.2074-11.099,9.4716,0,13.8372,3.8477,13.8372,9.9156v.7394a1.0888,1.0888,0,0,1-1.1834,1.1845H54.6433a1.0112,1.0112,0,0,1-1.1085-1.1107v-.7393c0-3.5524-2.5167-5.3286-8.1406-5.3286-6.069,0-8.4359,2.22-8.4359,5.7726V90.15c0,3.4036,1.9988,4.2179,5.1788,4.662l8.1406,1.1095c6.8073.8881,9.6942,3.7,9.6942,9.4717Z"/>
        <path class="cls-2" d="M88.4457,116.5672a1.3792,1.3792,0,0,1-1.4787-1.406V113.385a1.3406,1.3406,0,0,1,1.4787-1.406h4.7358V69.3567H88.4457a1.3406,1.3406,0,0,1-1.4787-1.406V66.1756a1.3792,1.3792,0,0,1,1.4787-1.406h8.5835c1.5536,0,2.2941.6655,2.2941,2.293V111.979h4.8107a1.3784,1.3784,0,0,1,1.4787,1.406v1.7762a1.4219,1.4219,0,0,1-1.4787,1.406Zm30.3387-.5917L103.7638,100.51a3.4731,3.4731,0,0,1-1.1107-2.5894,3.73,3.73,0,0,1,1.1834-2.6643l9.9168-10.9514H109.24a1.4454,1.4454,0,0,1-1.5558-1.406V81.1962A1.4461,1.4461,0,0,1,109.24,79.79h13.69a1.38,1.38,0,0,1,1.4787,1.406v1.7762a1.3792,1.3792,0,0,1-1.4787,1.406h-3.0345L108.3519,96.8835l14.9457,15.0955a2.882,2.882,0,0,1-.22,4.3667A3.0548,3.0548,0,0,1,118.7844,115.9755Z"/>
        <path class="cls-2" d="M132.9866,116.5672a1.4575,1.4575,0,0,1-1.5536-1.48v-1.7762a1.4435,1.4435,0,0,1,1.5536-1.406h4.8108V84.3784h-4.8108a1.4435,1.4435,0,0,1-1.5536-1.406V81.1962a1.4442,1.4442,0,0,1,1.5536-1.406h8.6585c1.5536,0,2.3668.6667,2.3668,2.2941v29.8209h4.8857a1.4448,1.4448,0,0,1,1.5536,1.406v1.7762a1.4587,1.4587,0,0,1-1.5536,1.48Z"/>
        <path class="cls-2" d="M168.68,116.5672c-7.6954,0-10.5823-2.812-10.5823-10.2121V84.3784h-5.549a1.4036,1.4036,0,0,1-1.5536-1.406V81.27a1.42,1.42,0,0,1,1.5536-1.48h5.549V71.2067a2.2146,2.2146,0,0,1,2.369-2.3679h1.4809a2.1935,2.1935,0,0,1,2.2919,2.3679V79.79h8.9538a1.3993,1.3993,0,0,1,1.4809,1.48v1.7024a1.381,1.381,0,0,1-1.4809,1.406H164.24v21.9029c0,3.9226,1.2583,5.55,4.8107,5.55h4.1431a1.3618,1.3618,0,0,1,1.4809,1.48V114.94a1.46,1.46,0,0,1-1.5537,1.6275Z"/>
        <circle class="cls-2" cx="140.5274" cy="66.7919" r="3.0561"/>
      </g>
    </g>
  </g>
</svg>
